Coordinates
version=1
nRows=27
nColumns=24
inDegrees=yes

Units are S.I. units (second, meters, Newtons, ...)
If the header above contains a line with 'inDegrees', this indicates whether rotational values are in degrees (yes) or radians (no).

endheader
time	pelvis_tilt	pelvis_list	pelvis_rotation	pelvis_tx	pelvis_ty	pelvis_tz	hip_flexion_r	hip_adduction_r	hip_rotation_r	knee_angle_r	ankle_angle_r	subtalar_angle_r	mtp_angle_r	hip_flexion_l	hip_adduction_l	hip_rotation_l	knee_angle_l	ankle_angle_l	subtalar_angle_l	mtp_angle_l	lumbar_extension	lumbar_bending	lumbar_rotation
2.0	13.130269470522965	5.042797417216214	-3.938586942050949	2.2025098176162503	-0.18219910018148044	2.9237465922768298	27.98080820118944	-8.296456522837179	-13.47944238028414	-28.839594653279192	3.483593667115161	-3.547220344195937	7.992082805396673	-4.9982314870181215	-10.152055914723078	0.8043034626782868	-43.55003591790101	1.9386513425882876	4.956487693002558	-5.1017686863263565	-16.531261135920218	1.3962208061697339	-8.905907714309997
2.017	-1.192548085899504	-4.5493024683732575	5.152688964524348	0.26176964008917236	0.2606339629694413	5.968143918450553	15.929499941977225	4.081612352365669	-3.4505203331886234	-24.69333833769395	4.238689943567506	7.953913011946518	2.0643155569306573	-6.040589392632133	-2.2189696679602124	-2.1538085231681743	-54.842744854795846	-3.0196528257229156	-2.4249240179001887	4.5592939115891244	-12.568888773293398	2.3396148745560814	-12.853925661956868
2.033	8.758669957616153	6.474127639161705	-0.4035711075961448	-12.832521363014228	3.772018631475283	2.6812728107740638	17.480289994113857	-3.2208237814412133	-6.621259788136047	-29.144084769943138	6.991562436661415	2.7244238009393875	13.595851334146523	-3.3723672532084676	-0.23576660145800887	4.616543798481799	-54.419611411739645	-13.185722137561015	0.5222919376591879	-0.004583253793411717	-12.729945696603039	7.005290570991249	-11.16784043013334
2.05	3.5715399961780854	-3.8558975627555325	-6.486000800124986	2.260459598781642	-5.719962697892106	-0.587954329205278	21.365779124950514	-10.013419805605997	-2.8948127003651	-23.633117302158105	7.75806896639552	1.328258174214899	2.9117560389160158	5.465725713689054	-8.876309086691379	2.420964973262525	-62.28034419645458	-19.78576488651155	0.7092588782034227	-1.963989493265127	-9.358091057524124	4.946676782727119	1.2950085850883264
2.067	2.313052010577823	3.4827754276724967	2.2427207447349993	0.03835650854412065	0.7804238880435548	12.169691946538842	19.78141431812788	-4.169978353939041	-5.685728711076799	-25.134096977966482	-5.23891915426649	-6.274168082467391	-8.615122752579856	0.8278102397836956	-8.60468262393331	-5.6833472676738195	-64.7752327758395	2.1086603142448173	0.23983530311922932	-10.482588257190786	-15.937336265451853	-0.27887865403398804	-8.179686182045184
2.083	1.8551227091081879	-3.655455097650128	-0.34719641733109974	-2.9505890802178283	-1.4240786147267464	-3.221566974765682	15.054624986377325	3.1336603611610983	-14.63071912950353	-27.522093747761815	-3.3584244952909845	0.4773302844383094	2.817064700265885	5.69400325253177	-4.513339320080436	2.4042901179033276	-79.32762408257088	-13.039921958895352	11.497598987569738	-5.087513672906922	-21.26014697596937	2.602572647413961	-3.6118848855454218
2.1	4.196247256661097	-2.769781277373605	0.46018935323242705	-3.9355550140564737	0.774789563003115	-1.7942493544838922	16.029352918899068	0.9996512844959342	2.000965736991681	-21.244145117439626	8.588298110274213	-0.33691813743271126	-2.671726502351248	-2.172567164133194	-5.35702760173345	-10.828683133741633	-72.22989483448684	-3.8014530926040635	2.9083215511525307	1.7316996521180412	-15.231285282403157	2.2390363783293528	1.010370066837826
2.117	5.11137493057506	9.533077092608186	4.353293042715908	-1.0860719022113852	-6.550412079425127	2.5266834946475845	1.303575284172898	-4.68920338580293	1.0824957411537026	-28.040159376171587	6.208922397081323	3.7163369199116576	2.7467868389462065	4.8035741834001495	-0.7530680681491893	-8.998413402608087	-67.23404810077679	-8.968674029719372	0.9517473322965188	-0.21912537141724658	-16.091705141606074	-0.11291947432754768	0.009100984218519237
2.133	10.037101901823995	0.9901750753699345	0.5289622079813832	-0.7086626359174059	5.507696866949957	-5.51913931795611	-3.4315383070029837	-1.7291653288513644	-1.3717862459720829	-19.12909866653199	3.7582875212845455	-2.040182108849589	-1.676560294681635	10.464406913408173	-11.559674886026503	-5.0542305153616915	-65.177104305447	-2.7744466114164634	-3.975943558626259	1.3064900803577655	-10.53097312830792	6.732049505286349	-2.090676408430718
2.15	5.566276330816107	-0.03992953249641684	1.7075902718091633	3.3303906417730724	-4.731995500976023	-1.7308036595255314	4.045546996449958	12.083226605527884	0.2255970963228191	-15.664153723038531	1.3478608623394228	-3.9955995466283447	-6.483560435813555	6.189385036678602	-3.110519006334692	1.517135078739987	-77.9033938406391	6.139898920121166	1.9176593689626722	-3.4094303232060996	-16.176364569019654	-4.130895224157809	-6.023243089790505
2.167	11.466361730084778	-3.519707029001272	-2.013280001804862	8.962003637884685	6.8075966028234705	-1.2508197151715101	-3.753447939655683	8.673330234972367	-4.685694159652829	-15.226427403147781	6.771260133560402	14.095997553245377	-2.3451485159314944	11.489244705995944	-11.029418285700604	-8.151134361832321	-69.70397024792844	-1.1748011719807507	-5.018919181687032	4.514108984473847	-17.045760100305205	5.654142651500392	-8.931955479461395
2.183	7.271824809876984	2.0795613429176925	2.403509691686442	0.5809349705350724	10.45297955831054	4.188790303237174	3.503938601290814	1.2388474150996132	-7.040320989539591	-13.68215540263092	11.100058705926454	-4.384169735516615	-1.165135786520969	13.564752742857255	3.827600841873517	3.268643272436437	-77.16502150452449	8.163743441936163	1.1507637088828062	-6.897030287987028	-11.260270447725283	4.429090379810958	-3.5645635774321156
2.2	7.267519871925176	-2.3461773660205836	-5.03008314414227	0.6155027942237786	2.760504223135902	-6.82216045568054	3.3208473558294545	-1.893796570513591	0.5871192601282798	-14.039632145473924	8.2690516517459	-1.7457730461613368	-2.844301466919792	11.219546803266788	-7.099411639618436	2.025151833035459	-60.920667059943135	6.683498387224391	3.9032182233772295	0.3201788001574609	-12.552332794278863	7.72304726047414	0.3430262436200487
2.217	3.895420926222728	-11.92939561831127	2.1949400393145546	3.184615949704801	7.335946520041337	3.2575284856866067	-6.058591926841903	3.0789777910080627	-5.211140760137421	-7.6164613543148265	5.739812430087671	-1.8937884696443834	0.01934221186610556	20.60831610818347	-2.5527080075298008	3.480516979137947	-56.45669449905714	1.813868336367488	9.507642354772038	-11.817694409437852	-5.394617813209697	5.1357170810497275	-1.2977988786208234
2.233	11.863081263583702	1.073364043374799	4.867767819786463	0.29126297165420884	-4.70651582213446	11.295666568377824	1.0758134912508734	4.2836184239991155	4.769421300745225	-17.85718092272804	11.877722181567563	-4.1019345353385	0.3169162603039771	23.67707162009295	-10.822055241424877	-9.705005845937835	-55.929613325745024	-8.747690745943935	-1.4371786646907383	-1.9962602806485275	-9.549743842755442	-1.9892826094746934	-5.73071445008366
2.25	0.8413264483758667	4.084636756643485	-0.2866384367047774	-5.502142585012169	5.733328110859448	-3.2639913067990314	6.039352877507171	0.4912795165836896	-3.3033010213655407	-10.469243578540897	12.226391955830666	-4.739416148363254	0.9999731125227835	20.47374820353467	0.9693885823603869	1.612214463617697	-53.41405194261969	4.720803841846992	-10.088327180299851	-3.6423337082181013	-15.06669819718969	2.7307447062065764	2.445006135695725
2.267	0.5067344297053955	-3.018588431435785	-2.8129715484889477	-6.587294041368417	-4.1184683117870104	3.6270122157894678	3.580826989370304	8.30243559610348	-7.216036647932719	-16.20472177654335	8.683372679866087	-4.811393304436662	-0.7218791800048581	14.316046818120304	0.8007989769204826	-18.222338248717904	-48.21233355434919	-0.46445330994461753	-8.006392101630968	-7.190943799342167	-7.806345914792777	6.054599278749336	11.588436961892203
2.283	12.416582907816952	-1.6010771090902867	-1.5691681317650843	2.2048218665650765	1.4024085639652106	-1.623546239983356	-8.299271967431178	3.741464080948476	-3.4217926993379484	-14.35597606193178	5.271188731695235	-0.2653455599514152	1.7154982209217073	15.091982168763083	2.463225911721204	-12.106650543993009	-47.63835744932207	6.217755792220372	-6.101071324065833	2.8956998769737785	-22.70301563594	11.462322727336222	3.7250990871544563
2.3	-1.9211862580057364	-7.0987472405873255	5.246761959677741	-1.7063533154499773	0.03443139834417064	-3.4991473688676664	-11.210697508542548	8.388402747070561	7.977063403242312	-12.534254268007503	6.115002428697291	-5.4409939538535825	2.5874087003674235	20.298771410141356	-10.61501002120372	-10.83510632662243	-36.84726628464412	-2.1576088667580047	-2.781910585081488	5.1119714724503105	-9.280112407947003	11.171479603389361	-4.163535863404245
2.317	2.0462052583182557	-1.6063030086684704	-1.196118104000907	-7.59986874948435	2.6630579060752004	2.1515505593763535	-12.871079020972395	7.663454669116685	-4.646134683021904	7.3041015012217025	13.168000858504751	-9.271158100765318	-4.3390836581905186	15.95048406904986	-14.501400853168551	-8.175411152677356	-30.854254290222016	0.0785289258331534	4.1538050792923835	2.7326979867993324	-19.652898771429154	-1.2195001098713862	-0.22545708345831983
2.333	3.612104105787085	-4.0365102893457525	-3.3504187501303466	7.0751782103425365	1.7332747451505166	-2.074482335515177	-18.512712905498027	11.988248168093975	6.8331934806681645	-6.247848558584394	13.268128474687895	-4.86315743732533	-9.452301118275017	15.984736849862088	-11.31220964607051	-4.09049871163703	-23.875687853055982	-4.11274002041867	1.3603077591033255	8.657535121034321	-16.197027570075406	0.9071003774071722	-6.624287566967942
2.35	6.725337654194967	-8.201190048511043	-2.9623816847530646	6.145921941863439	9.138904281616291	-12.060399485411738	-15.348746593018978	3.362163306468248	-2.8119426804320713	-11.763049371215478	5.506611576810386	9.028443780858575	1.7525687822237377	21.20794018746984	-9.965524526715274	-11.589264781003992	-12.626840304268407	1.9203425234136122	-3.9166016903028544	-5.432755660767042	-11.526442837225034	10.772238773450862	7.307682350821436
2.367	3.9153394479479475	-5.449744744083038	-12.97251534791453	5.9598745145929914	4.756857828030002	9.942524594507566	-14.98343172601092	-1.6938067435234938	1.1497615823325713	-3.1535807256249226	5.144720909174954	-8.244999359516427	-3.6975990081904198	21.745258138913805	-5.595663184844973	-11.582860825325461	-5.7234144757422465	-8.426375934072391	-6.743671856164502	-3.2222240679748735	-10.063002103779711	7.529613736090141	6.128463016241577
2.383	9.034710463916822	-2.7447160496983742	-9.01705828400613	-11.665916767553096	0.2565618916457557	3.599319600068202	-12.180298646954618	6.618549399316811	5.323453502928001	-12.483424817922543	3.526410488282174	0.6297741223649869	-0.7284165085101242	33.156923644835004	-7.748925979213536	-5.379054953249704	-8.141342087904325	0.41637960438318045	-7.97486590492173	-0.6050159844113441	-23.406193614311544	3.1054134401935487	-3.022339706172373
2.4	6.537578818502712	-0.7225665730999156	-6.693553340508769	-5.292827485959311	-2.9951718013652635	2.106863677154833	-19.11540868391208	9.91869089243433	3.493283523792154	-3.2882992511742226	13.914963026112568	-6.257464920655291	2.0682187285446747	21.822014515625312	-9.61236135146906	-14.385743760147161	-1.4852497094508188	-0.24194018304570963	5.871944075444593	-0.8265080310206745	-10.506314850566456	1.2640140350021483	1.1231191545529189
2.417	17.04992935859452	-3.6515327613564974	-7.620945412187568	-1.156998040457824	-2.346819528841415	0.21670495427880895	-23.331940943111512	15.258176109630368	7.734233124645305	-5.816110601461067	22.799506777741335	-0.7945321367228211	-6.97687640844277	14.844579759886157	-4.097140963981458	1.954241737664045	-1.1354448501225292	-2.771156407815265	2.3234881903730487	-6.628236990616362	-11.114124719902495	8.269043234833335	3.5978593277787443
2.433	2.144215540053879	-11.77596944491378	-10.49146905792372	-1.4689779955762345	0.4832125296685643	-8.259964841759269	-19.79221736799903	2.1516778775787433	6.854846661892317	-2.8663243515011674	9.906761696381118	-5.758396877892815	3.104506423347735	16.79398419412682	0.5890932670919664	0.5161248183732581	-6.2467095346398684	6.768441633870107	2.89401549781943	-0.5197663152312133	-15.639424351313497	-2.0363845943442507	8.04086620256643
